<svg xmlns="http://www.w3.org/2000/svg" viewBox="0 0 64 64" role="img" aria-label="Robotic hand icon">
  <rect width="64" height="64" rx="12" fill="#0b1f3a"/>
  <g fill="none" stroke="#66b2ff" stroke-linecap="round" stroke-linejoin="round" stroke-width="3">
    <path d="M21 45v-9a3 3 0 0 1 6 0v6"/>
    <path d="M27 42V23a3 3 0 0 1 6 0v16"/>
    <path d="M33 39V20a3 3 0 0 1 6 0v17"/>
    <path d="M39 41V24a3 3 0 0 1 6 0v13"/>
    <path d="M21 36l-4-3a3 3 0 0 0-4 5l7 6a10 10 0 0 0 6 2h14a8 8 0 0 0 8-8v-7"/>
    <path d="M21 49h23"/>
    <circle cx="48" cy="31" r="2" fill="#66b2ff" stroke="none"/>
    <circle cx="33" cy="14" r="2" fill="#66b2ff" stroke="none"/>
  </g>
</svg>
